<?xml version="1.0" encoding="utf-8"?>
<!-- Generator: Adobe Illustrator 25.1.0, SVG Export Plug-In . SVG Version: 6.00 Build 0)  -->
<svg version="1.1" id="b2c7d13c-cf19-4853-8e1a-27f628056126"
	 xmlns="http://www.w3.org/2000/svg" xmlns:xlink="http://www.w3.org/1999/xlink" x="0px" y="0px" viewBox="0 0 841.6 589"
	 style="enable-background:new 0 0 841.6 589;" xml:space="preserve">
<style type="text/css">
	.st0{fill:#FFB8B8;}
	.st1{fill:#2F2E41;}
	.st2{opacity:0.28;enable-background:new    ;}
	.st3{fill:#CCCCCC;}
	.st4{fill:#607D8B;}
	.st5{fill:#00CCCC;}
	.st6{opacity:0.1;fill:#219CB3;enable-background:new    ;}
	.st7{fill:#535461;}
	.st8{fill:#65617D;}
	.st9{fill:#9D9CB5;}
	.st10{fill:#219CB3;}
	.st11{fill:none;stroke:#535461;stroke-width:2;stroke-miterlimit:10;}
</style>
<polygon class="st0" points="693.2,574.2 679.1,574.2 672.4,519.9 693.2,519.9 "/>
<path class="st1" d="M696.8,587.8h-45.4v-0.6c0-9.8,7.9-17.7,17.7-17.7l0,0h27.7V587.8z"/>
<polygon class="st0" points="755.3,539.6 746.2,550.3 700.5,520.1 714,504.3 "/>
<path class="st1" d="M768.1,545.7l-29.5,34.5l-0.4-0.4c-7.4-6.3-8.3-17.5-2-24.9l0,0l18-21.1L768.1,545.7z"/>
<polygon class="st1" points="593.2,307.1 588.9,347.5 766,345 688.8,219.1 625.7,216.8 "/>
<polygon class="st2" points="593.2,307.1 588.9,347.5 766,345 688.8,219.1 625.7,216.8 "/>
<path class="st1" d="M628.1,314.1l-6.3,37v33.1l50.4,16.5c0,0-5.9,128.4,2,136.6L674,557l22,1l0.2-13.9l9.3-103.9l5.5-76.3
	l-8.9-57.8L628.1,314.1z"/>
<path class="st1" d="M726.6,511.7c0,0-45-42-58.3-58.7c-5.4-6.7-5.4-7.4-5.4-7.4l1.8-28l18.5-52l-16.1-19.7l-45.3,38.2
	c0,0-0.4,9.5-0.5,21.8c0.1,1.1,0.2,2.2,0.2,3.3c0,1.6-0.1,3.2-0.3,4.8c0,19.7,0.9,42.6,4.6,47.1c5.8,6.9,81,66.8,81,66.8
	s13.4,12.3,20.9,12.5s16.2-15.5,16.2-15.5L726.6,511.7z"/>
<polygon class="st1" points="619,162.9 599.5,161.1 581.8,164 544.2,164 541,191.2 575.3,198.9 583.6,194.8 618.4,208.1 "/>
<path class="st3" d="M639.4,162.8c0,0,41.5-3.9,50.9,3.5s29.6,154.3,29.6,154.3l-80.5,4.5l-14.4-9.9l4.1-73.3L639.4,162.8z"/>
<polygon class="st1" points="655,161.9 609.3,162.9 566.6,355.6 600.3,363 "/>
<polygon class="st1" points="687.5,160.3 723.6,171.5 721.5,250.7 766,345.4 713.7,350.9 672.4,248.7 "/>
<ellipse class="st0" cx="671.1" cy="123.6" rx="30.2" ry="30.2"/>
<path class="st1" d="M667.7,111c-4-0.9-8.1,0.1-12.1,0.8s-8.4,0.9-11.8-1.4c-2.5-1.7-4.1-4.4-5.5-7c-0.6-0.9-1-2-1.2-3.1
	c-0.2-1.9,1.1-3.7,2.4-5.2c6.1-6.7,15-10.4,24.1-11.6c7.4-1.1,15-0.2,22,2.7c6.8,3,12.7,8.5,15.4,15.5c1.2,3.6,2,7.3,2.3,11
	c0.4,2.8,0.5,5.6,0.2,8.4c-0.4,2.1-0.9,4.1-1.6,6.1l-4.5,13.4c-0.3,1.3-0.9,2.5-1.8,3.5c-0.9,1-2.3,1.3-3.5,0.8
	c0.4-1.5,0.4-3,0.2-4.5c-0.3-1.5-1.5-2.7-3-3c-1.6-0.2-3,1.1-4.6,1.6c-3,0.9-6.1-0.8-7-3.8c0-0.1-0.1-0.3-0.1-0.4
	c-0.2-1.5,0.2-3.2-0.4-4.6c-0.7-1.7-2.5-2.6-3.9-3.8c-2.5-2.3-3.5-5.9-2.4-9.2c0.4-1.1,1.4-1.6,1.2-2.9
	C671.6,112.5,669.1,111.3,667.7,111z"/>
<path class="st3" d="M790.6,589h-187c-0.6,0-1-0.4-1-1s0.4-1,1-1h187c0.6,0,1,0.4,1,1S791.1,589,790.6,589z"/>
<g transform="translate(0.000000,1280.000000) scale(0.100000,-0.100000)">
	<path class="st4" d="M6991.5,9609.3c-12.1-16.7-14.8-46.4-7-77.8c7.5-30.4,21.6-54.6,38.4-65.6c4.2-2.8,6.1-3.5,11.7-4.9
		c11.5-2.9,25.2-4.7,59.9-7.9c36.3-3.3,47.9-5,65.1-9.1c16.8-4,29.1-8.6,41.9-15.5c8.8-4.7,12.2-7.1,43.2-30
		c65.7-48.6,96.5-71.3,122.4-90.5c63.9-47.2,84.1-62.1,122.4-90.5c22.3-16.4,51.5-38.1,64.9-48s26.1-19,28.2-20.1
		c8.9-4.9,18.3-6.7,29.1-5.8c8.6,0.8,13,2.3,21.5,7.3c8.4,5,11.7,7.9,16.6,15.2c3.7,5.5,5.4,9,7.2,15.4c3.5,12.8,2.2,26-3.8,37.9
		c-3,5.8-6.5,10.2-12,14.9c-2.3,1.9-45.6,30.9-97.5,65.1c-51.4,33.9-131.9,87.1-179,118.1c-47.1,31.1-87.8,58.1-90.4,60.2
		c-14.9,11.5-27.3,24.9-39.2,42.8l-6.2,9.2l-0.4,3.5c-0.4,4.5-2.7,8.7-6.5,12.1c-2.6,2.4-2.8,2.8-6,9.9c-1.8,4.1-3.5,7.8-3.7,8.1
		s0.3,1,1.1,1.4c1.3,0.8,1.4,1.1,0.6,4.1c-0.5,1.8-1,3.7-1.1,4.3c-0.2,0.8,0.4,1.3,3.5,3.2l3.8,2.2l3-2.9l3-3l2.3,1.2
		c2.6,1.3,2.6,1.1,0.7,7.4l-0.7,2.4l3.8,2.2l3.8,2.3l3-3l3.1-3l2.3,1.2c1.9,1,2.2,1.3,2.1,2.2c-0.2,0.5-0.7,2.5-1.2,4.3l-0.9,3.2
		l3.6,2.2c2,1.2,3.6,2.2,3.5,2.3s-3.1,2.3-6.7,4.9c-6,4.3-8,5.4-22.2,11.3c-14,6-19.2,8.7-52,26.5c-20.1,11-38.5,20.9-40.9,22.1
		c-8.9,4.2-17.2,5.8-26.9,5.2c-5.8-0.4-11-1.5-18.2-4.2l-5.6-2l22.2-37.1c20.7-34.6,22.3-37.1,23.4-37.2c2-0.3,4.2-4.5,3.7-7.3
		l-0.4-2.3l-32.2-19c-36.8-21.8-38.5-22.6-46.1-22.7c-5.4-0.1-3.3-2.9-29.5,40.5l-23.3,38.6l-1.5-0.9
		C6994.8,9613.5,6992.9,9611.4,6991.5,9609.3z M7141.3,9529.6c1.3-1.2,2.9-2.8,3.5-3.5c1.1-1.2,1.3-1.2,3.5,0.1
		c1.4,0.8,2.5,1.2,2.7,0.9s-0.8-1.1-2.5-2l-2.9-1.5l-3.3,3.3l-3.3,3.3l-3.1-1.6c-4.3-2.3-4.5-1.2-0.3,1.3l3.4,2L7141.3,9529.6z
		 M7157.3,9539.1c1.3-1.2,2.9-2.8,3.5-3.5c1.1-1.2,1.3-1.2,3.5,0.1c1.3,0.8,2.5,1.2,2.7,0.9c0.1-0.2-0.9-1.2-2.3-2l-2.6-1.6
		l-3.7,3.6l-3.7,3.5l-3.2-2c-1.8-1.1-3.3-1.8-3.5-1.6c-0.2,0.3,1.3,1.4,3.3,2.6l3.6,2.2L7157.3,9539.1z M7173.4,9548.6
		c1.3-1.2,2.9-2.8,3.5-3.5c1.1-1.2,1.3-1.2,3.5,0.1c2.6,1.6,2.6,0.8,0.4,8.3l-0.8,2.6l2.3,1.3l2.3,1.3l-1.9-1.4
		c-1.9-1.4-1.9-1.5-1.3-3.8c0.4-1.3,1-3.5,1.4-4.9l0.7-2.6l-2.6-1.7l-2.6-1.7l-3.7,3.6l-3.7,3.6l-3.6-1.7l-3.5-1.8l3.7,2.3l3.7,2.3
		L7173.4,9548.6z M7181.3,9478.8l2.9-3l3.4,2.2l3.4,2.2l-1.1,3.6l-1.1,3.6l2.9,1.9c2.1,1.4,3.1,1.8,3.5,1.4c0.3-0.3,1.7-1.6,3-2.8
		l2.4-2.4l3.3,2l3.4,2l-1.1,3.9l-1.1,3.9l3,1.8l3,1.8l2.1-2.2c3.1-3.1,4-3.6,5-2.6c1.1,1.1,1.5,0.2,0.6-1.3
		c-0.6-1-6.2-4.5-23.1-14.5c-20.5-12.1-22.5-13.2-24.1-13.1l-1.7,0.1l2.5,1.5c1.6,0.9,2.5,1.8,2.4,2.3c-0.1,0.3-0.6,2.2-1,4
		l-0.9,3.2l2.8,1.7l2.9,1.7L7181.3,9478.8z M7594.7,9231c12.1,3.1,25.3-0.5,34-9.1c3.5-3.4,7.5-10.3,8.9-14.9
		c2.9-10.4,0.6-23.3-5.8-31.4c-6.6-8.4-15-12.8-25.8-13.6c-10.2-0.8-21,3.6-28.1,11.3c-13.5,14.8-12.1,37.6,3.2,50.8
		C7584.3,9226.6,7590.9,9230,7594.7,9231z"/>
</g>
<path class="st0" d="M747,355c4.8-4.2,5.2-11.5,1-16.2c-0.4-0.5-0.9-1-1.5-1.4l7.2-25.3l-14.3-8.2l-9.7,35.9
	c-3.6,5.3-2.3,12.5,2.9,16.1C737.1,358.9,743,358.6,747,355L747,355z"/>
<path class="st1" d="M702.7,173.7l21.3-1.8c0,0,19.1,20,23.5,35.5s9.1,64,9.1,64l-2,71l-24.9-16.9l-1.7-61L702.7,173.7z"/>
<path class="st5" d="M276.6,429.2c-0.2-1.6-1.2-11.8-2.6-27.2v29.2h2.5C276.4,430.5,276.5,429.9,276.6,429.2z"/>
<path class="st5" d="M598.2,188c0.7-0.5,1.6-0.8,2.6-1v-1.1H274v1c0.8-0.1,1.7,0.2,2.6,0.7c68.2,42.6,321.6,0,321.6,0V188z"/>
<path class="st5" d="M274,402V186.9C256.5,188.5,268.3,338.9,274,402z"/>
<g transform="translate(0.000000,640.000000) scale(0.100000,-0.100000)">
	<path class="st4" d="M5666.4,4398.7c-7.2,9.7-16.4,18.1-28.4,26s-17.7,10.3-45.4,19.9c-20.3,7-36.1,14.9-42.3,21
		c-1.9,2-13.5,21.2-77,127.9l-74.7,125.5l-1.9,5.5c-4.8,13.9-5,28.1-0.6,48.3c2.9,13.2,2.9,24.1,0.2,36.2
		c-3.4,15.3-14.1,35.1-25,46.1c-12.5,12.6-28,21.4-45,25.6c-11.9,2.9-22.6,3.7-33.8,2.6c-9.2-0.9-24.3-4.5-27.9-6.6
		c-5.4-3.2-7.4-10.8-4.3-16.1c0.7-1.1,2.8-3.6,4.8-5.4c2-1.9,8.9-9.3,15.4-16.4c6.4-7.1,14.8-16.4,18.6-20.6l6.9-7.6l-0.3-2
		c-1.3-10.2-15.9-28.2-28.2-34.7c-6.9-3.6-7.7-3.6-12.1,0.7c-8.9,8.7-34.5,33.9-41.3,40.4c-5.4,5.2-8.5,6.7-12.7,6.2
		c-3.1-0.4-7-2.9-8.6-5.4c-1.6-2.6-5.3-15.5-6.3-22.1c-5.1-34.9,7.6-67.4,35.2-89.6c9.4-7.6,16.2-10.9,34.5-16.9
		c25.4-8.3,36.5-13.6,45.9-21.7l3.2-2.7l57.5-96.8c31.6-53.3,65.8-111.3,75.9-129c17.9-31.1,18.5-32.3,19.8-37
		c3.5-12.5,2.7-27.6-3-53.9c-5.2-24-1.3-46.8,12.1-69.6c9-15.2,17.5-24.4,31-33.6c20.3-13.7,43.4-19.5,68.8-17.4
		c11.2,0.9,27.2,4.6,31.7,7.2c5.2,3.1,7.2,10.8,4.2,16c-0.6,1-3.2,3.9-5.8,6.5c-2.6,2.6-12.4,13.2-21.8,23.7s-18.5,20.5-20.1,22.2
		c-1.6,1.8-3,3.3-3,3.3s0.1,1.3,0.3,2.9c1.5,11.1,16.2,29.8,30.2,38.3c5.6,3.3,9.3,4.7,11.6,4.1c0.8-0.2,4.1-3.1,7.4-6.4
		c5.9-5.9,27.5-27.1,41-40.2c7.9-7.7,10.2-9.1,14.8-8.6c7.1,0.7,9.6,3.9,13,17.1c3.4,12.9,4.5,25.5,3.3,38.2
		C5682.8,4368.5,5676.9,4384.4,5666.4,4398.7z"/>
</g>
<circle class="st0" cx="544" cy="176.9" r="12"/>
<ellipse class="st6" cx="197.2" cy="579.7" rx="52.2" ry="4.6"/>
<rect x="197.9" y="431.9" class="st7" width="3.1" height="70.1"/>
<path class="st8" d="M220.6,501.9l-0.2,3.1l-0.3,4.5l-0.1,1.9l-0.3,4.5l-0.1,1.9l-0.3,4.5l-3.1,50.7c-0.3,4.5-4,8.1-8.6,8.1h-16.3
	c-4.5,0-8.3-3.6-8.6-8.1l-3.1-50.7l-0.3-4.5l-0.1-1.9l-0.3-4.5l-0.1-1.9l-0.3-4.5l-0.2-3.1c-0.2-2.5,1.7-4.6,4.2-4.7
	c0.1,0,0.2,0,0.3,0h33.5c2.5,0,4.5,2,4.5,4.5C220.6,501.7,220.6,501.8,220.6,501.9z"/>
<polygon class="st9" points="220.4,505.1 220.1,509.5 178.8,509.5 178.6,505.1 "/>
<polygon class="st9" points="220.1,511.4 219.8,515.8 179.2,515.8 178.9,511.4 "/>
<polygon class="st9" points="219.6,517.6 219.3,522.1 179.6,522.1 179.3,517.6 "/>
<path class="st10" d="M173.8,458.2c18.1,13.1,25.7,33.7,25.7,33.7s-21.9-0.7-40-13.9s-25.7-33.7-25.7-33.7S155.7,445.1,173.8,458.2z
	"/>
<path class="st11" d="M133.8,444.3c0,0,22.7,12.6,30,23s35.7,24.5,35.7,24.5"/>
<path class="st10" d="M185.5,431.8c9.9,7.2,14,18.3,14,18.3s-11.9-0.4-21.7-7.5s-14-18.3-14-18.3S175.6,424.6,185.5,431.8z"/>
<path class="st11" d="M163.7,424.2c0,0,12.3,6.9,16.3,12.5c4,5.7,19.5,13.3,19.5,13.3"/>
<path class="st10" d="M213.9,449.5c-11.3,12.5-13.7,28.7-13.7,28.7s16-3.9,27.3-16.4c11.4-12.5,13.7-28.7,13.7-28.7
	S225.2,437,213.9,449.5z"/>
<path class="st11" d="M241.1,433.1c0,0-14.8,12.8-18.6,21.6c-3.8,8.8-22.5,23.6-22.5,23.6"/>
</svg>
