<?xml version="1.0" encoding="utf-8"?>
<!-- Generator: Adobe Illustrator 25.1.0, SVG Export Plug-In . SVG Version: 6.00 Build 0)  -->
<svg version="1.1" xmlns="http://www.w3.org/2000/svg" xmlns:xlink="http://www.w3.org/1999/xlink" x="0px" y="0px"
	 viewBox="0 0 1686 341" style="enable-background:new 0 0 1686 341;" xml:space="preserve">
<style type="text/css">
	.st0{opacity:0.53;fill:#666666;stroke:#000000;stroke-miterlimit:10;}
	.st1{display:none;fill:#666666;stroke:#000000;stroke-miterlimit:10;}
	.st2{display:none;}
</style>
<g id="Layer_5">
</g>
<g id="Layer_2">
	<path class="st0" d="M394.5,287.2c-81.2-27.3-136.1-61.5-170-86.4c-20.9-15.4-42-33.2-43-57.6c-1.2-29.2,27.3-51.8,37-60.9
		c96.2-90.9,762.4-73.3,1092-59.8c29,0.1,68.1,1.9,114,8.9c67.1,10.2,75.2,22.9,78,28.8c16.7,35.2-47.5,96.5-59,107.4
		c-52.1,49.7-108.5,69-121,73.2C1109.4,311.3,652.9,374.2,394.5,287.2z"/>
	<path class="st1" d="M1030.5-68.5"/>
	<g id="Layer_3" class="st2">
	</g>
	<g id="Layer_4" class="st2">
	</g>
</g>
</svg>
